<svg xmlns="http://www.w3.org/2000/svg" viewBox="0 0 273.78 493.91"><defs><style>.cls-1{fill:none;stroke:#000;stroke-linecap:round;stroke-miterlimit:10;stroke-width:3px;}</style></defs><title>Asset 3</title><g id="Layer_2" data-name="Layer 2"><g id="Layer_1-2" data-name="Layer 1"><path class="cls-1" d="M182.9,492.41v-28c0-24,6-47,6-47m-63,29c21,0,31.49,1.51,43-10,10-10,31.67-31.34,43-42,17-16,27-27,33-46s26-57,25-81,0-33,2-49-4-23-15-21-29,32-33,44-1,29-1,29-11.86,10.08-18,21a69.83,69.83,0,0,0-9,31m31-89c-5-49.56-5-50.77-6-83-1-32-4-45-4-74s-2-60-22-59-21,36-21,46,2,11,2,15-4,21-2,34,0,17-1,23a185,185,0,0,0-2,39c1,18,2,24-5,23m13-165s2-25-13-30-22.47,11.09-27,36c-4,22,0,29,0,34s-8,23-8,56c0,22-5,24-5,42s6,27-14,27M140.24,31.68s-.35-17.27-14.35-17.27c-15,0-22,26-25,41s3,26.35,0,33c-4,9-9.86,23-9,41,1,21-5,12.92-5,39,0,24,2.7,32.36-10,38-9,4-12,5-12,5M100.28,69.82S86.9,67.41,79.9,75.41s-19,33-21,45c-1.65,9.91,0,19-5,26s-18,39-19,55,1.81,9.38-6,25c-6,12-21,51-25,95s-4.76,86.53,12,102c13,12,17,13,17,13m-6,56v-22c0-23-3-37-12.6-48.57M66.9,133.41c6,3,14,3,14,3M123,90.68s-5.39-3.46-14.24-1.54M160,72.68s-5.39-3.46-14.24-1.54M199.9,85.41s-7-5-17.05-1.74m17.05,57.74s-9-3-17-1m-3,9.93a29.64,29.64,0,0,0,18.88,3.6,18.25,18.25,0,0,0,5.39-1.8M139.9,139.41c4.44,2.22,12.89,2.78,20,1m-44-3a49.73,49.73,0,0,0-16-1m-2,8c9.36,5.35,22.22,1.78,20.5,1.78M222.9,270.41c2,10,8,13,8,13m-31.81,21.43s-15.19-.43-26.19,10.57m17-29c6,5,14.07,6.71,14.07,6.71M43.9,274.41c27-4,46.91-.4,85-9,31-7,41-24,41-24m-6,36c-48.35,13.07-60,48-68,80"/></g></g></svg>