<svg id="Layer_1" data-name="Layer 1" xmlns="http://www.w3.org/2000/svg" viewBox="0 0 63.58 72.1"><defs><style>.cls-1{fill:#775c47;}</style></defs><title>righthand</title><g id="Right_Hand" data-name="Right Hand"><g id="Layer_1-2" data-name="Layer 1-2"><path class="cls-1" d="M16.83,66.35c8.74,5.16,18.59,7.37,28.53,4.42C57.94,67,65.71,56.85,63.06,43.85,61,33.52,56.82,19.55,51.88,10.28,41.78-8.67,44,22.4,44.11,22.4,40.33,23.58,36.72-2,28.9.12,20.21,2.47,35.48,23.93,32,25.47,28,27.24,21-3.75,12.27,1.55,4.22,6.44,25.21,28.23,21.41,30.82,19.74,32,.14,3.41.82,20.47,1,24.82,7.9,32.6,10.1,36.36L18.1,50c-1.28-2.19-15.77-2.93-17.77.2C-2.42,56.08,12.84,64,16.83,66.35ZM48.07,41.47a1.88,1.88,0,0,1-1.27-2.34,1.84,1.84,0,0,1,2-1.16,1.79,1.79,0,0,1-.09,3.57A1.88,1.88,0,0,1,48.07,41.47ZM36.75,47.68l-.07-.05a.5.5,0,1,1,.69-.73,5.17,5.17,0,0,0,4.85.57,4.32,4.32,0,0,0,2.83-3.33.5.5,0,0,1,1,.11,5.32,5.32,0,0,1-3.47,4.16,6.3,6.3,0,0,1-2.3.43,6.08,6.08,0,0,1-3.57-1.15Zm-6.66.86a1.88,1.88,0,0,1-1.92-2.41,1.84,1.84,0,0,1,2-1.16,1.79,1.79,0,0,1-.09,3.57Z" transform="translate(0 0)"/></g></g></svg>